<?xml version="1.0" encoding="UTF-8"?>
<svg id="Camada_1" data-name="Camada 1" xmlns="http://www.w3.org/2000/svg" viewBox="0 0 1080 1080">
  <defs>
    <style>
      .cls-1 {
        fill: #fff;
      }
    </style>
  </defs>
  <path class="cls-1" d="M199.59,502.7h56.82c8.39,0,15.21,6.81,15.21,15.21h0c0,8.39-6.81,15.21-15.21,15.21h-56.82v-30.41h0Z"/>
  <path class="cls-1" d="M233.12,390.83h22.6c3.79,0,6.87,3.08,6.87,6.87h0c0,3.79-3.08,6.87-6.87,6.87h-22.6v-13.75h0Z" transform="translate(194.96 -67.92) rotate(25.45)"/>
  <path class="cls-1" d="M393.72,236.34h22.6c3.79,0,6.87,3.08,6.87,6.87h0c0,3.79-3.08,6.87-6.87,6.87h-22.6v-13.75h0Z" transform="translate(460.29 -229.34) rotate(65.49)"/>
  <path class="cls-1" d="M818.19,392.24h22.6c3.79,0,6.87,3.08,6.87,6.87h0c0,3.79-3.08,6.87-6.87,6.87h-22.6v-13.75h0Z" transform="translate(1756.53 401.55) rotate(154.55)"/>
  <path class="cls-1" d="M656.09,236.34h22.6c3.79,0,6.87,3.08,6.87,6.87h0c0,3.79-3.08,6.87-6.87,6.87h-22.6v-13.75h0Z" transform="translate(1170.44 -266.24) rotate(114.51)"/>
  <path class="cls-1" d="M291.79,305.66h56.82c8.39,0,15.21,6.81,15.21,15.21h0c0,8.39-6.81,15.21-15.21,15.21h-56.82v-30.41h0Z" transform="translate(322.9 -137.81) rotate(45)"/>
  <path class="cls-1" d="M719.86,311.53h56.82c8.39,0,15.21,6.81,15.21,15.21h0c0,8.39-6.81,15.21-15.21,15.21h-56.82v-30.41h0Z" transform="translate(1521.41 23.29) rotate(135)"/>
  <path class="cls-1" d="M807.85,502.7h56.82c8.39,0,15.21,6.81,15.21,15.21h0c0,8.39-6.81,15.21-15.21,15.21h-56.82v-30.41h0Z" transform="translate(1687.73 1035.82) rotate(180)"/>
  <path class="cls-1" d="M503.98,220.43h56.82c8.39,0,15.21,6.81,15.21,15.21h0c0,8.39-6.81,15.21-15.21,15.21h-56.82v-30.41h0Z" transform="translate(775.64 -304.36) rotate(90)"/>
  <path class="cls-1" d="M753.79,556.93c-3.25,138.96-98.43,250.43-215.46,250.43s-212.26-111.53-215.46-250.54c-48.16,47.22-80.25,110.16-87.5,180.29,10.74.79,21.27,7.13,28.6,21.13,9.09,17.36,18.54,34.58,28.55,51.3,34.02,30.52,70.91,58.63,110.23,72.45,46.73,16.42,98.2,17.53,146.65,19.16,73.85,2.48,168.22-3.38,207.77-90.61,6.58-14.51,16.52-21.24,26.88-22.29,8.84-15.13,18.21-29.91,29.52-43.19,8.43-9.91,17.96-13.61,27.08-13.02-8.24-68.05-39.92-129.04-86.85-175.11Z"/>
  <path class="cls-1" d="M540,203.33c185.64,0,336.67,151.03,336.67,336.67s-151.03,336.67-336.67,336.67-336.67-151.03-336.67-336.67,151.03-336.67,336.67-336.67M540,157.9c-211.03,0-382.1,171.07-382.1,382.1s171.07,382.1,382.1,382.1,382.1-171.07,382.1-382.1-171.07-382.1-382.1-382.1h0Z"/>
  <g>
    <path class="cls-1" d="M480.59,594.97l3.42-1.75c18.95,35.46,35.28,72.97,59.04,105.97,3.39,4.71,20.77,27.6,24.48,28.4,1.69.37,3.4.41,4.84-.73,2.21-1.73,7.73-36.46,8.4-41.97,13.83-114.93-28.11-217.56-123.31-283.29-8.81-6.08-32.26-21.93-41.28-24.78-4.63-1.46-8.96-1.71-10.66,3.58-16.48,81.06-33.99,173.63-18.49,256.12,17.4,92.64,95.2,139.05,185.46,137.68-.33-7.89-11.09-13.46-16.62-19.32-40.77-43.22-65.49-101.64-75.26-159.91ZM719.09,475.91c-29.61,4.9-80.19,28.13-106.35,43.82-4.41,2.64-22.5,13.89-24.32,17.03-3.66,6.3,4.52,23.6,6.4,31.58,11.46,48.88,12.66,95.26-1.94,143.6-1.8,5.95-9.07,20.09-9.45,24.63-.22,2.63-.03,3.15,2.21,4.62,76.88-37.07,121.15-113.39,134.68-195.6,1.65-10.05,8.47-63.62,4.31-68.99-1.68-1.95-3.52-1.03-5.53-.69Z"/>
    <path class="cls-1" d="M480.59,594.97c9.78,58.27,34.49,116.7,75.26,159.91,5.53,5.86,16.29,11.43,16.62,19.32-90.26,1.37-168.06-45.04-185.46-137.68-15.5-82.49,2.02-175.05,18.49-256.12,1.71-5.29,6.03-5.04,10.66-3.58,9.02,2.85,32.48,18.7,41.28,24.78,95.2,65.73,137.15,168.36,123.31,283.29-.66,5.51-6.19,40.24-8.4,41.97-1.45,1.13-3.15,1.09-4.84.73-3.7-.8-21.09-23.69-24.48-28.4-23.76-33-40.09-70.51-59.04-105.97l-3.42,1.75Z"/>
    <path class="cls-1" d="M719.09,475.91c2.01-.33,3.85-1.26,5.53.69,4.16,5.37-2.66,58.94-4.31,68.99-13.53,82.22-57.8,158.53-134.68,195.6-2.24-1.47-2.43-1.99-2.21-4.62.38-4.53,7.65-18.68,9.45-24.63,14.6-48.34,13.4-94.72,1.94-143.6-1.87-7.98-10.06-25.28-6.4-31.58,1.83-3.14,19.92-14.39,24.32-17.03,26.17-15.69,76.75-38.92,106.35-43.82Z"/>
  </g>
</svg>