<?xml version="1.0" encoding="UTF-8"?>
<svg id="Camada_1" data-name="Camada 1" xmlns="http://www.w3.org/2000/svg" xmlns:xlink="http://www.w3.org/1999/xlink" viewBox="0 0 1080 1080">
  <defs>
    <style>
      .cls-1 {
        fill: #226b22;
      }

      .cls-2 {
        fill: url(#Gradiente_sem_nome_64-3);
      }

      .cls-3 {
        fill: #226822;
      }

      .cls-4 {
        fill: #272;
      }

      .cls-5 {
        fill: #262;
      }

      .cls-6 {
        fill: #282;
      }

      .cls-7 {
        fill: url(#Gradiente_sem_nome_73);
      }

      .cls-8 {
        fill: url(#Gradiente_sem_nome_64);
      }

      .cls-9 {
        fill: url(#Gradiente_sem_nome_64-2);
      }

      .cls-10 {
        fill: #228422;
      }

      .cls-11 {
        fill: #227022;
      }

      .cls-12 {
        fill: url(#Gradiente_sem_nome_94);
      }

      .cls-13 {
        fill: #228922;
      }

      .cls-14 {
        fill: #228b22;
      }

      .cls-15 {
        fill: #227f22;
      }
    </style>
    <linearGradient id="Gradiente_sem_nome_94" data-name="Gradiente sem nome 94" x1="237.04" y1="639.51" x2="842.31" y2="639.51" gradientUnits="userSpaceOnUse">
      <stop offset="0" stop-color="#228722"/>
      <stop offset="1" stop-color="#226822"/>
    </linearGradient>
    <linearGradient id="Gradiente_sem_nome_73" data-name="Gradiente sem nome 73" x1="159.57" y1="450.31" x2="923.77" y2="450.31" gradientUnits="userSpaceOnUse">
      <stop offset="0" stop-color="#228b22"/>
      <stop offset="1" stop-color="#226422"/>
    </linearGradient>
    <linearGradient id="Gradiente_sem_nome_64" data-name="Gradiente sem nome 64" x1="382.68" y1="485.39" x2="727.61" y2="485.39" gradientUnits="userSpaceOnUse">
      <stop offset="0" stop-color="#228b22"/>
      <stop offset="1" stop-color="#226422"/>
    </linearGradient>
    <linearGradient id="Gradiente_sem_nome_64-2" data-name="Gradiente sem nome 64" x1="382.68" y1="485.39" x2="585.01" y2="485.39" xlink:href="#Gradiente_sem_nome_64"/>
    <linearGradient id="Gradiente_sem_nome_64-3" data-name="Gradiente sem nome 64" x1="585.02" y1="518.61" y2="518.61" xlink:href="#Gradiente_sem_nome_64"/>
  </defs>
  <path class="cls-13" d="M201.25,413.02h56.82c8.39,0,15.21,6.81,15.21,15.21h0c0,8.39-6.81,15.21-15.21,15.21h-56.82v-30.41h0Z"/>
  <path class="cls-6" d="M234.78,301.14h22.6c3.79,0,6.87,3.08,6.87,6.87h0c0,3.79-3.08,6.87-6.87,6.87h-22.6v-13.75h0Z" transform="translate(156.58 -77.34) rotate(25.45)"/>
  <path class="cls-15" d="M395.39,146.65h22.6c3.79,0,6.87,3.08,6.87,6.87h0c0,3.79-3.08,6.87-6.87,6.87h-22.6v-13.75h0Z" transform="translate(379.66 -283.33) rotate(65.49)"/>
  <path class="cls-3" d="M819.85,302.55h22.6c3.79,0,6.87,3.08,6.87,6.87h0c0,3.79-3.08,6.87-6.87,6.87h-22.6v-13.75h0Z" transform="translate(1721.16 230.16) rotate(154.55)"/>
  <path class="cls-11" d="M657.75,146.65h22.6c3.79,0,6.87,3.08,6.87,6.87h0c0,3.79-3.08,6.87-6.87,6.87h-22.6v-13.75h0Z" transform="translate(1091.2 -394.66) rotate(114.51)"/>
  <path class="cls-10" d="M293.46,215.98h56.82c8.39,0,15.21,6.81,15.21,15.21h0c0,8.39-6.81,15.21-15.21,15.21h-56.82v-30.41h0Z" transform="translate(259.97 -165.26) rotate(45)"/>
  <path class="cls-1" d="M721.53,221.84h56.82c8.39,0,15.21,6.81,15.21,15.21h0c0,8.39-6.81,15.21-15.21,15.21h-56.82v-30.41h0Z" transform="translate(1460.83 -131) rotate(135)"/>
  <path class="cls-5" d="M809.52,413.02h56.82c8.39,0,15.21,6.81,15.21,15.21h0c0,8.39-6.81,15.21-15.21,15.21h-56.82v-30.41h0Z" transform="translate(1691.06 856.44) rotate(180)"/>
  <path class="cls-4" d="M505.65,130.74h56.82c8.39,0,15.21,6.81,15.21,15.21h0c0,8.39-6.81,15.21-15.21,15.21h-56.82v-30.41h0Z" transform="translate(687.62 -395.72) rotate(90)"/>
  <path class="cls-12" d="M755.46,467.25c-3.25,138.96-98.43,250.43-215.46,250.43s-212.26-111.53-215.46-250.54c-48.16,47.22-80.25,110.16-87.5,180.29,10.74.79,21.27,7.13,28.6,21.13,9.09,17.36,18.54,34.58,28.55,51.3,34.02,30.52,70.91,58.63,110.23,72.45,46.73,16.42,98.2,17.53,146.65,19.16,73.85,2.48,168.22-3.38,207.77-90.61,6.58-14.51,16.52-21.24,26.88-22.29,8.84-15.13,18.21-29.91,29.52-43.19,8.43-9.91,17.96-13.61,27.08-13.02-8.24-68.05-39.92-129.04-86.85-175.11Z"/>
  <g>
    <g>
      <path class="cls-14" d="M183.6,909.5h37.46c26.92,0,47.53,19.56,47.53,47.99s-23.31,54.3-55.65,54.3h-56.7l27.37-102.28ZM212.48,987.27c17.45,0,29.49-12.78,29.49-28.88,0-13.69-8.88-24.37-24.07-24.37h-14.44l-14.14,53.25h23.16Z"/>
      <path class="cls-14" d="M294.93,909.5h85.43l-6.17,22.71h-58.81l-4.06,15.19h42.42l-6.17,22.71h-42.42l-5.11,18.95h59.11l-6.17,22.71h-85.43l27.37-102.28Z"/>
      <path class="cls-14" d="M392.11,909.5h40.31l8.43,62.88h.3l41.97-62.88h41.82l-27.38,102.28h-26.02l19.25-72.05h-.3l-47.68,72.05h-23.31l-9.18-72.05h-.3l-19.25,72.05h-26.02l27.37-102.28Z"/>
      <path class="cls-14" d="M540.59,909.5h85.44l-6.17,22.71h-58.82l-4.06,15.19h42.42l-6.17,22.71h-42.42l-5.12,18.95h59.11l-6.17,22.71h-85.43l27.37-102.28ZM583.46,881.98h30.08l-14.89,21.81h-27.67l12.48-21.81Z"/>
      <path class="cls-14" d="M660.65,934.02h-35.5l6.47-24.52h97.77l-6.46,24.52h-35.8l-20.76,77.77h-26.47l20.75-77.77Z"/>
      <path class="cls-14" d="M738.88,909.5h85.44l-6.17,22.71h-58.82l-4.06,15.19h42.42l-6.17,22.71h-42.42l-5.12,18.95h59.11l-6.17,22.71h-85.43l27.37-102.28Z"/>
      <path class="cls-14" d="M836.06,909.5h57.76c15.65,0,29.93,8.88,29.93,26.03,0,18.35-14.59,34.74-35.05,34.74h-11.28l29.03,41.52h-30.84l-27.37-41.52h-1.96l-11.13,41.52h-26.48l27.38-102.28ZM887.51,948.01c4.96,0,9.18-3.91,9.18-9.18,0-3.76-3.01-6.62-7.53-6.62h-32.64l-4.36,15.79h35.35Z"/>
    </g>
    <path class="cls-7" d="M541.67,113.64c185.64,0,336.67,151.03,336.67,336.67s-151.03,336.67-336.67,336.67-336.67-151.03-336.67-336.67S356.03,113.64,541.67,113.64M541.67,68.21c-211.03,0-382.1,171.07-382.1,382.1s171.07,382.1,382.1,382.1,382.1-171.07,382.1-382.1S752.7,68.21,541.67,68.21h0Z"/>
  </g>
  <g>
    <path class="cls-8" d="M482.26,505.28l3.42-1.75c18.95,35.46,35.28,72.97,59.04,105.97,3.39,4.71,20.77,27.6,24.48,28.4,1.69.37,3.4.41,4.84-.73,2.21-1.73,7.73-36.46,8.4-41.97,13.83-114.93-28.11-217.56-123.31-283.29-8.81-6.08-32.26-21.93-41.28-24.78-4.63-1.46-8.96-1.71-10.66,3.58-16.48,81.06-33.99,173.63-18.49,256.12,17.4,92.64,95.2,139.05,185.46,137.68-.33-7.89-11.09-13.46-16.62-19.32-40.77-43.22-65.49-101.64-75.26-159.91ZM720.76,386.23c-29.61,4.9-80.19,28.13-106.35,43.82-4.41,2.64-22.5,13.89-24.32,17.03-3.66,6.3,4.52,23.6,6.4,31.58,11.46,48.88,12.66,95.26-1.94,143.6-1.8,5.95-9.07,20.09-9.45,24.63-.22,2.63-.03,3.15,2.21,4.62,76.88-37.07,121.15-113.39,134.68-195.6,1.65-10.05,8.47-63.62,4.31-68.99-1.68-1.95-3.52-1.03-5.53-.69Z"/>
    <path class="cls-9" d="M482.26,505.28c9.78,58.27,34.49,116.7,75.26,159.91,5.53,5.86,16.29,11.43,16.62,19.32-90.26,1.37-168.06-45.04-185.46-137.68-15.5-82.49,2.02-175.05,18.49-256.12,1.71-5.29,6.03-5.04,10.66-3.58,9.02,2.85,32.48,18.7,41.28,24.78,95.2,65.73,137.15,168.36,123.31,283.29-.66,5.51-6.19,40.24-8.4,41.97-1.45,1.13-3.15,1.09-4.84.73-3.7-.8-21.09-23.69-24.48-28.4-23.76-33-40.09-70.51-59.04-105.97l-3.42,1.75Z"/>
    <path class="cls-2" d="M720.76,386.23c2.01-.33,3.85-1.26,5.53.69,4.16,5.37-2.66,58.94-4.31,68.99-13.53,82.22-57.8,158.53-134.68,195.6-2.24-1.47-2.43-1.99-2.21-4.62.38-4.53,7.65-18.68,9.45-24.63,14.6-48.34,13.4-94.72,1.94-143.6-1.87-7.98-10.06-25.28-6.4-31.58,1.83-3.14,19.92-14.39,24.32-17.03,26.17-15.69,76.75-38.92,106.35-43.82Z"/>
  </g>
</svg>