<?xml version="1.0" encoding="UTF-8"?>
<svg id="Camada_1" data-name="Camada 1" xmlns="http://www.w3.org/2000/svg" viewBox="0 0 1080 230">
  <defs>
    <style>
      .cls-1 {
        fill: #fff;
      }
    </style>
  </defs>
  <g>
    <path class="cls-1" d="M572.43,61.91l.51-.26c2.84,5.32,5.29,10.94,8.85,15.88.51.71,3.11,4.14,3.67,4.26.25.05.51.06.73-.11.33-.26,1.16-5.46,1.26-6.29,2.07-17.23-4.21-32.61-18.48-42.46-1.32-.91-4.84-3.29-6.19-3.71-.69-.22-1.34-.26-1.6.54-2.47,12.15-5.09,26.02-2.77,38.39,2.61,13.88,14.27,20.84,27.8,20.64-.05-1.18-1.66-2.02-2.49-2.9-6.11-6.48-9.81-15.23-11.28-23.97ZM608.17,44.06c-4.44.73-12.02,4.22-15.94,6.57-.66.4-3.37,2.08-3.65,2.55-.55.94.68,3.54.96,4.73,1.72,7.33,1.9,14.28-.29,21.52-.27.89-1.36,3.01-1.42,3.69-.03.39,0,.47.33.69,11.52-5.56,18.16-16.99,20.19-29.32.25-1.51,1.27-9.54.65-10.34-.25-.29-.53-.15-.83-.1Z"/>
    <path class="cls-1" d="M572.43,61.91c1.47,8.73,5.17,17.49,11.28,23.97.83.88,2.44,1.71,2.49,2.9-13.53.2-25.19-6.75-27.8-20.64-2.32-12.36.3-26.24,2.77-38.39.26-.79.9-.76,1.6-.54,1.35.43,4.87,2.8,6.19,3.71,14.27,9.85,20.56,25.23,18.48,42.46-.1.83-.93,6.03-1.26,6.29-.22.17-.47.16-.73.11-.56-.12-3.16-3.55-3.67-4.26-3.56-4.95-6.01-10.57-8.85-15.88l-.51.26Z"/>
    <path class="cls-1" d="M608.17,44.06c.3-.05.58-.19.83.1.62.8-.4,8.83-.65,10.34-2.03,12.32-8.66,23.76-20.19,29.32-.34-.22-.36-.3-.33-.69.06-.68,1.15-2.8,1.42-3.69,2.19-7.25,2.01-14.2.29-21.52-.28-1.2-1.51-3.79-.96-4.73.27-.47,2.99-2.16,3.65-2.55,3.92-2.35,11.5-5.83,15.94-6.57Z"/>
  </g>
  <g>
    <path class="cls-1" d="M183.61,98.64h37.46c26.92,0,47.53,19.56,47.53,47.99s-23.31,54.3-55.65,54.3h-56.7l27.37-102.28ZM212.49,176.41c17.45,0,29.49-12.78,29.49-28.88,0-13.69-8.88-24.37-24.07-24.37h-14.44l-14.14,53.25h23.16Z"/>
    <path class="cls-1" d="M294.94,98.64h85.43l-6.17,22.71h-58.81l-4.06,15.19h42.42l-6.17,22.71h-42.42l-5.11,18.95h59.11l-6.17,22.71h-85.43l27.37-102.28Z"/>
    <path class="cls-1" d="M392.12,98.64h40.31l8.43,62.88h.3l41.97-62.88h41.82l-27.38,102.28h-26.02l19.25-72.05h-.3l-47.68,72.05h-23.31l-9.18-72.05h-.3l-19.25,72.05h-26.02l27.37-102.28Z"/>
    <path class="cls-1" d="M540.6,98.64h85.44l-6.17,22.71h-58.82l-4.06,15.19h42.42l-6.17,22.71h-42.42l-5.12,18.95h59.11l-6.17,22.71h-85.43l27.37-102.28Z"/>
    <path class="cls-1" d="M660.65,123.16h-35.5l6.47-24.52h97.77l-6.46,24.52h-35.8l-20.76,77.77h-26.47l20.75-77.77Z"/>
    <path class="cls-1" d="M738.89,98.64h85.44l-6.17,22.71h-58.82l-4.06,15.19h42.42l-6.17,22.71h-42.42l-5.12,18.95h59.11l-6.17,22.71h-85.43l27.37-102.28Z"/>
    <path class="cls-1" d="M836.07,98.64h57.76c15.65,0,29.93,8.88,29.93,26.03,0,18.35-14.59,34.74-35.05,34.74h-11.28l29.03,41.52h-30.84l-27.37-41.52h-1.96l-11.13,41.52h-26.48l27.38-102.28ZM887.52,137.15c4.96,0,9.18-3.91,9.18-9.18,0-3.76-3.01-6.62-7.53-6.62h-32.64l-4.36,15.79h35.35Z"/>
  </g>
</svg>